Coordinates
version=1
nRows=16
nColumns=40
inDegrees=yes

Units are S.I. units (second, meters, Newtons, ...)
Angles are in degrees.

endheader
time	pelvis_tilt	pelvis_list	pelvis_rotation	pelvis_tx	pelvis_ty	pelvis_tz	hip_flexion_r	hip_adduction_r	hip_rotation_r	knee_angle_r	knee_angle_r_beta	ankle_angle_r	subtalar_angle_r	mtp_angle_r	hip_flexion_l	hip_adduction_l	hip_rotation_l	knee_angle_l	knee_angle_l_beta	ankle_angle_l	subtalar_angle_l	mtp_angle_l	lumbar_extension	lumbar_bending	lumbar_rotation	arm_flex_r	arm_add_r	arm_rot_r	elbow_flex_r	pro_sup_r	wrist_flex_r	wrist_dev_r	arm_flex_l	arm_add_l	arm_rot_l	elbow_flex_l	pro_sup_l	wrist_flex_l	wrist_dev_l
     37.01900000	     -3.91661057	     -4.84052143	     -2.11402776	      1.06266672	      0.93505951	      0.41802919	     36.38651232	     -5.63855335	     -6.38654836	     59.06254927	     59.06254927	     -1.69831039	    -14.87407816	      3.37008969	      8.17624498	     -5.06298190	    -10.50026795	     18.47746065	     18.47746065	     15.34694728	    -10.69423213	      0.81067409	    -11.41333424	      8.42277287	      3.33065578	     11.11785372	    -13.16751139	    -14.08913894	     28.77836051	     47.00093365	      0.00000000	      0.00000000	     18.90327150	    -16.21353155	     -2.00668930	     66.37666321	     46.89577499	      0.00000000	      0.00000000
     37.03050000	     -3.86153379	     -5.02873180	     -2.30951084	      1.06237750	      0.93496554	      0.41869814	     36.61427332	     -5.19206361	     -6.45064936	     55.70340159	     55.70340159	     -1.58039874	    -13.37672850	      2.93617649	      7.22620528	     -5.26282922	    -10.74909658	     18.07213805	     18.07213805	     15.67294628	    -10.51241354	      0.65070247	    -11.64258492	      8.64020803	      3.31195834	      9.52592097	    -13.21392509	    -14.00648005	     26.90498777	     47.05465643	      0.00000000	      0.00000000	     20.47019524	    -16.75567680	     -2.42296383	     68.20782917	     46.97421363	      0.00000000	      0.00000000
     37.04200000	     -3.91391095	     -5.13105896	     -2.45130106	      1.06214688	      0.93453071	      0.41938935	     36.69511031	     -4.82344712	     -6.52432945	     51.83462363	     51.83462363	     -2.24207974	    -12.24793074	      0.35135978	      6.41244833	     -5.39365234	    -11.06635231	     17.68708595	     17.68708595	     15.90833710	    -10.16282744	      0.16269385	    -11.71227501	      8.74743336	      2.60051160	      9.00455755	    -12.99837856	    -13.80671886	     23.15947262	     47.18306794	      0.00000000	      0.00000000	     21.11314546	    -17.89962983	     -3.05221740	     71.40594851	     47.12775203	      0.00000000	      0.00000000
     37.05350000	     -3.95466329	     -5.23539594	     -2.55061646	      1.06202459	      0.93405367	      0.42005615	     36.60578902	     -4.49570793	     -6.69953299	     47.78091427	     47.78091427	     -1.98337787	    -10.49636555	      0.35685106	      5.60433890	     -5.49682576	    -11.22769150	     17.33847733	     17.33847733	     16.22246006	     -9.99874760	      0.04766885	    -11.79561665	      8.89924012	      2.61527987	      7.03335451	    -13.02828557	    -13.82956295	     22.20198102	     47.20846409	      0.00000000	      0.00000000	     22.73318380	    -18.25343798	     -3.52925508	     72.87453245	     47.20095035	      0.00000000	      0.00000000
     37.06500000	     -3.96421641	     -5.25261633	     -2.64692789	      1.06212409	      0.93343458	      0.42075215	     36.26544301	     -4.26059089	     -6.94495562	     43.43805062	     43.43805062	     -1.71149808	     -8.62852510	      0.15383288	      4.73067035	     -5.51416597	    -11.48547832	     16.96223463	     16.96223463	     16.54455315	     -9.68609556	     -0.15157419	    -11.92217992	      8.91680354	      2.77699676	      4.95223386	    -13.05217802	    -13.86838828	     21.26629183	     47.23477643	      0.00000000	      0.00000000	     24.25569900	    -18.50663265	     -3.90273809	     74.86363678	     47.27741984	      0.00000000	      0.00000000
     37.07650000	     -3.99575497	     -5.25618330	     -2.68992410	      1.06245236	      0.93263333	      0.42148492	     35.69251685	     -4.03696276	     -7.35629267	     38.80433580	     38.80433580	     -1.47584020	     -6.77677048	     -0.05910795	      3.88726957	     -5.52826487	    -11.74350775	     16.61177029	     16.61177029	     16.85591108	     -9.32505129	     -0.41506937	    -11.97420730	      8.93805339	      2.79159658	      2.85345051	    -12.98765461	    -13.95409983	     20.59833608	     47.25365765	      0.00000000	      0.00000000	     25.59616007	    -18.86757308	     -4.23163634	     76.95942193	     47.35359284	      0.00000000	      0.00000000
     37.08800000	     -4.04718486	     -5.26304267	     -2.68718033	      1.06292363	      0.93164304	      0.42229024	     34.92894012	     -3.76839039	     -7.88957517	     34.00439680	     34.00439680	     -1.23751184	     -5.00476853	      0.13589151	      3.09211364	     -5.55313786	    -11.88714698	     16.31493021	     16.31493021	     17.18654542	     -9.00055955	     -0.69558394	    -11.94948266	      8.98055458	      2.65153413	      0.78404808	    -12.88092382	    -14.06083698	     20.13626518	     47.26441529	      0.00000000	      0.00000000	     26.79305142	    -19.26575759	     -4.54844743	     78.72646245	     47.41926509	      0.00000000	      0.00000000
     37.09950000	     -4.00097610	     -5.13749045	     -2.65697623	      1.06379572	      0.93055476	      0.42307996	     33.91381153	     -3.67383378	     -8.75815081	     29.25607912	     29.25607912	     -0.98202043	     -2.87270644	      0.25628096	      2.11524370	     -5.44089818	    -12.23697174	     15.91497298	     15.91497298	     17.46780006	     -8.36076459	     -1.18408086	    -12.04204718	      8.83107028	      2.66187657	     -1.66956123	    -12.73760846	    -14.35618784	     20.39923438	     47.25647000	      0.00000000	      0.00000000	     27.77740732	    -19.49824613	     -4.82577769	     81.44382000	     47.51187199	      0.00000000	      0.00000000
     37.11100000	     -4.05192066	     -5.09246771	     -2.58348297	      1.06486803	      0.92916825	      0.42413590	     32.84799932	     -3.31645693	     -9.46487346	     24.58512675	     24.58512675	     -0.64704117	     -1.39079007	      1.18681744	      1.33410437	     -5.43456394	    -12.30235092	     15.70739323	     15.70739323	     17.77931881	     -8.15826658	     -1.45891897	    -11.90070193	      8.81802192	      2.42333741	     -3.66263734	    -12.50527651	    -14.47252431	     20.12438111	     47.25787633	      0.00000000	      0.00000000	     28.86397296	    -19.91485731	     -5.12915366	     82.72857623	     47.56636887	      0.00000000	      0.00000000
     37.12250000	     -3.92144100	     -4.94523732	     -2.51469784	      1.06636341	      0.92773803	      0.42527700	     31.75033862	     -3.18996672	    -10.72767538	     20.75953636	     20.75953636	      0.45033119	      0.99494215	      3.72680211	      0.25188596	     -5.35363952	    -12.69344608	     15.36735377	     15.36735377	     18.03996386	     -7.40152685	     -2.20699544	    -12.01362629	      8.64717348	      2.50752772	     -6.57603565	    -12.24087708	    -15.02891193	     21.70929242	     47.20051085	      0.00000000	      0.00000000	     29.66615951	    -20.10841867	     -5.29554790	     85.29315968	     47.66574767	      0.00000000	      0.00000000
     37.13400000	     -3.79337170	     -4.81640280	     -2.41283886	      1.06805908	      0.92620173	      0.42666173	     30.60616676	     -2.88581833	    -11.74144139	     17.27530277	     17.27530277	      1.00084253	      2.40597134	      5.26345439	     -0.79460666	     -5.27306492	    -12.75271327	     15.11005345	     15.11005345	     18.38402948	     -7.07826675	     -2.49529840	    -12.00154875	      8.48907475	      2.52531311	     -8.71847344	    -11.95872947	    -15.15550301	     21.53584413	     47.19388800	      0.00000000	      0.00000000	     30.68513693	    -20.20032713	     -5.45988779	     86.62817068	     47.71920851	      0.00000000	      0.00000000
     37.14550000	     -3.72990457	     -4.66312051	     -2.32336600	      1.06992894	      0.92441246	      0.42826561	     29.69146576	     -2.61087174	    -12.82062478	     14.62990399	     14.62990399	      1.64328717	      3.73142780	      6.77904463	     -1.75998271	     -5.20930264	    -12.90070320	     14.89659616	     14.89659616	     18.74232448	     -6.64282410	     -2.81491744	    -11.87486565	      8.28197797	      2.53675594	    -10.81560255	    -11.59549753	    -15.31430984	     21.59496577	     47.17890666	      0.00000000	      0.00000000	     31.52654073	    -20.24982114	     -5.53535459	     88.06217620	     47.76640526	      0.00000000	      0.00000000
     37.15700000	     -3.67324272	     -4.51477592	     -2.26483352	      1.07191540	      0.92254436	      0.43014673	     29.01318507	     -2.37199219	    -14.00635677	     12.97541769	     12.97541769	      2.52098724	      5.01992632	      8.68624149	     -2.70718470	     -5.19649235	    -13.21557646	     14.74430605	     14.74430605	     19.12981008	     -5.97372298	     -3.18571820	    -11.77352466	      8.05716862	      2.65338757	    -13.08011469	    -11.15148137	    -15.57454189	     22.31674089	     47.13711379	      0.00000000	      0.00000000	     32.23518927	    -20.26876487	     -5.50723321	     89.71530001	     47.81821520	      0.00000000	      0.00000000
     37.16850000	     -3.68825138	     -4.44335767	     -2.19567179	      1.07395620	      0.92056534	      0.43221856	     28.54939102	     -2.07819916	    -14.99953560	     12.08504721	     12.08504721	      3.32636499	      5.73001042	     10.59045699	     -3.46684517	     -5.33460386	    -13.51613796	     14.84233999	     14.84233999	     19.68731562	     -5.23506978	     -3.38601826	    -11.56441796	      7.97088503	      2.82578472	    -15.46005630	    -10.69203745	    -15.85628156	     23.87522586	     47.04763960	      0.00000000	      0.00000000	     32.75810157	    -20.29173960	     -5.38980750	     91.03865639	     47.88506681	      0.00000000	      0.00000000
     37.18000000	     -3.71558778	     -4.40636568	     -2.13280207	      1.07611052	      0.91861498	      0.43460793	     28.09327152	     -1.71869800	    -15.60546911	     11.60414123	     11.60414123	      3.37113642	      5.84786998	     10.46497179	     -4.21583229	     -5.48576682	    -13.52674952	     14.92216855	     14.92216855	     20.09685451	     -5.02895339	     -3.47927978	    -11.29793003	      7.86414179	      2.95551124	    -16.95327515	    -10.23414887	    -15.81765574	     23.51256966	     47.04060066	      0.00000000	      0.00000000	     33.23093265	    -20.14510850	     -5.44829554	     92.03060444	     47.92039776	      0.00000000	      0.00000000
     37.19150000	     -3.76232065	     -4.42746251	     -2.08478379	      1.07838544	      0.91666055	      0.43722203	     27.82865870	     -1.38520474	    -16.02383323	     11.85885450	     11.85885450	      3.26603182	      5.76073180	      9.83192207	     -4.86999500	     -5.75793699	    -13.64173544	     15.17961303	     15.17961303	     20.49129125	     -4.73957045	     -3.57286838	    -10.98616749	      7.81416664	      3.06771399	    -18.24040354	     -9.76856252	    -15.77633526	     23.26088674	     47.03089467	      0.00000000	      0.00000000	     33.49664165	    -20.04650130	     -5.47866297	     93.01619442	     47.95129614	      0.00000000	      0.00000000
